# xmcd
#
# Track frame offsets:
#	150
#	8300
#	22652
#	30417
#	43593
#	53475
#	66180
#	75592
#	86885
#	101943
#	114178
#	125942
#	139119
#	149471
#	161705
#	173941
#	188058
#	195352
#	205705
#	216175
#
# Disc length: 3044 seconds
#
# Revision: 0
# Processed by: cddbd v1.5.2PL0 Copyright (c) Steve Scherf et al.
# Submitted via: EZCDAudioConverter 2.3.5.1
#
DISCID=090be214
DTITLE=금잔디 - 트롯트 금잔디 8
DYEAR=2014
DGENRE=Trot
TTITLE0=사랑찾아 인생찾아
TTITLE1=세월아 청춘아
TTITLE2=오뚝이 인생
TTITLE3=최고다 당신
TTITLE4=잠깐
TTITLE5=백세시대
TTITLE6=섬마을처녀
TTITLE7=천년지기
TTITLE8=아슬아슬
TTITLE9=남자의 인생
TTITLE10=여여
TTITLE11=도도한 여자
TTITLE12=임진강
TTITLE13=사랑이 오네
TTITLE14=불타는 청춘
TTITLE15=자꾸 자꾸
TTITLE16=어느 구름에 비들었는지
TTITLE17=청춘을 돌려다오
TTITLE18=18세 순이
TTITLE19=남행열차
EXTD=
EXTT0=
EXTT1=
EXTT2=
EXTT3=
EXTT4=
EXTT5=
EXTT6=
EXTT7=
EXTT8=
EXTT9=
EXTT10=
EXTT11=
EXTT12=
EXTT13=
EXTT14=
EXTT15=
EXTT16=
EXTT17=
EXTT18=
EXTT19=
PLAYORDER=
